PathFileType	4	(X/Y/Z)	./resultDataOpenSim/trcMotMarkerGrf/sub10/qtm-04-08.trc
DataRate	CameraRate	NumFrames	NumMarkers	Units	OrigDataRate	OrigDataStartFrame	OrigNumFrames
250.000000	250.000000	6	24	m	250.000000	68	541
Frame#	Time	L.Toe.Tip			R.Toe.Tip			L.Ankle.Lat			R.Ankle.Lat			L.Ankle.Med			R.Ankle.Med			L.Heel			R.Heel			L.Knee.Lat			R.Knee.Lat			L.Knee.Med			R.Knee.Med			L.Thigh.Upper			R.Thigh.Upper			L.ASIS			R.ASIS			V.Sacral			L.Acromium			R.Acromium			C7			L.Elbow			R.Elbow			L.Wrist.Lat			R.Wrist.Lat
		X1	Y1	Z1	X2	Y2	Z2	X3	Y3	Z3	X4	Y4	Z4	X5	Y5	Z5	X6	Y6	Z6	X7	Y7	Z7	X8	Y8	Z8	X9	Y9	Z9	X10	Y10	Z10	X11	Y11	Z11	X12	Y12	Z12	X13	Y13	Z13	X14	Y14	Z14	X15	Y15	Z15	X16	Y16	Z16	X17	Y17	Z17	X18	Y18	Z18	X19	Y19	Z19	X20	Y20	Z20	X21	Y21	Z21	X22	Y22	Z22	X23	Y23	Z23	X24	Y24	Z24

68	0.268	-1.4417518	0.051242821	-0.16500415	-0.75355264	0.039953233	0.030290022	-1.4628229	0.18392798	-0.19592407	-0.8971187	0.0515808	0.052002804	-1.4377914	0.18247985	-0.11621474	-0.87177674	0.081497184	-0.027383029	-1.5166163	0.22526222	-0.14915803	-0.94195886	0.028431218	-0.0020358026	-1.1540364	0.41044514	-0.2052287	-0.89734841	0.44742902	0.099346183	-1.142952	0.36810085	-0.091524647	-0.88469656	0.45967693	-0.027076302	-1.0729442	0.78499293	-0.2238654	-1.0294807	0.84450525	0.15659635	-1.0004248	0.89271117	-0.16608927	-0.97262277	0.92678539	0.073045202	-1.1859682	0.92783094	-0.029954484	-1.0217544	1.3766173	-0.1946633	-1.0535767	1.3800382	0.12887014	-1.1191167	1.4095907	-0.042621719	-1.1393668	1.0539945	-0.28453778	-1.176232	1.0552789	0.14586938	-0.98550301	0.85939843	-0.26021745	-1.1482564	0.83922029	0.24332001
69	0.272	-1.4378787	0.05281093	-0.16504814	-0.75351666	0.039877293	0.030261943	-1.4539717	0.18691049	-0.19634202	-0.89710851	0.051585165	0.052020176	-1.4289494	0.1850276	-0.11663327	-0.8717029	0.081485079	-0.027350891	-1.5053102	0.2300699	-0.14978349	-0.94196031	0.028420188	-0.002007959	-1.1431216	0.40982173	-0.20568075	-0.89510328	0.44779151	0.099754352	-1.1319873	0.36694639	-0.091510998	-0.88251907	0.45965617	-0.026754466	-1.0666881	0.78469617	-0.22282069	-1.0248138	0.84526951	0.1574657	-0.99488874	0.89313489	-0.16491664	-0.96771787	0.92734294	0.074016457	-1.181301	0.92840461	-0.030017366	-1.0165983	1.3775127	-0.19345972	-1.0486145	1.3805331	0.12998078	-1.1140984	1.4101644	-0.041505582	-1.1354389	1.055705	-0.28447514	-1.1705731	1.0556248	0.14720705	-0.98245759	0.86020707	-0.26029747	-1.1420657	0.83952179	0.24488952
70	0.276	-1.4339647	0.054379615	-0.16494528	-0.75348612	0.03981265	0.030247649	-1.4448468	0.18979213	-0.19673391	-0.89709399	0.051594142	0.052029713	-1.4200562	0.18758653	-0.11702346	-0.87161177	0.081482079	-0.027318864	-1.49378	0.23469759	-0.15035237	-0.94196078	0.028410696	-0.0019903637	-1.1320693	0.40923655	-0.20613999	-0.89275804	0.44801506	0.10010778	-1.1209791	0.36607518	-0.091375602	-0.88047898	0.45969231	-0.026423054	-1.0604764	0.78448256	-0.22179368	-1.0202214	0.84600922	0.15830393	-0.98942798	0.89357876	-0.16383075	-0.96315795	0.92788422	0.07479852	-1.1764813	0.92895306	-0.029673949	-1.011499	1.3783849	-0.19232365	-1.0436324	1.3810159	0.13107419	-1.1090872	1.4107674	-0.040408278	-1.1314826	1.0573704	-0.28436134	-1.1649371	1.055955	0.14858721	-0.97940321	0.86099255	-0.2604039	-1.1358251	0.83981833	0.2464101
71	0.28	-1.4297214	0.056108471	-0.1648152	-0.75346105	0.039756217	0.030248985	-1.4355167	0.19257447	-0.19711258	-0.89708295	0.051597348	0.052031172	-1.4111467	0.19014021	-0.11734236	-0.87150112	0.081480576	-0.027286945	-1.4824426	0.23906879	-0.15086644	-0.94196257	0.028401474	-0.0019807652	-1.1211791	0.40869101	-0.20643705	-0.8904131	0.44812404	0.10044283	-1.110019	0.36550784	-0.091114619	-0.87836505	0.45977214	-0.026072931	-1.054351	0.78436953	-0.22082012	-1.0157177	0.84672126	0.15911216	-0.98408219	0.89405114	-0.16282704	-0.95876985	0.92840471	0.075458814	-1.1716089	0.92948437	-0.029143463	-1.0064373	1.3792385	-0.19124364	-1.0386179	1.3814892	0.1321492	-1.1040793	1.4114019	-0.039329662	-1.1274777	1.0590014	-0.28418312	-1.1593195	1.0562709	0.15001198	-0.9763494	0.86175332	-0.2605439	-1.1295075	0.84012397	0.24788006
72	0.284	-1.4247574	0.058182838	-0.16480104	-0.75344106	0.039704907	0.030259203	-1.4260674	0.19525844	-0.19748404	-0.89708209	0.051585659	0.052024722	-1.4021982	0.19264597	-0.11757135	-0.87137316	0.081475734	-0.027255539	-1.4714141	0.24310539	-0.15135655	-0.94196875	0.028391407	-0.0019749365	-1.1105788	0.4082055	-0.20649393	-0.88807385	0.4482041	0.10078945	-1.0991675	0.36524043	-0.090738987	-0.87604525	0.45988334	-0.025710496	-1.0483769	0.78436073	-0.21993691	-1.0112931	0.84739587	0.15987147	-0.97884264	0.89456264	-0.16189786	-0.95429422	0.92887755	0.076119611	-1.1667652	0.93000846	-0.028583794	-1.0013828	1.3800797	-0.19020949	-1.0335434	1.3819552	0.13319475	-1.0990722	1.4120695	-0.038266389	-1.1234088	1.0605795	-0.28390657	-1.1537166	1.056575	0.1514807	-0.9732895	0.86249722	-0.26071595	-1.1230899	0.84043457	0.24931099
73	0.288	-1.4188837	0.060668513	-0.16493042	-0.75342413	0.039655343	0.030269335	-1.4165418	0.19785785	-0.19783155	-0.89709069	0.051556326	0.052010889	-1.3931977	0.19505979	-0.11770242	-0.87123176	0.081465301	-0.027227638	-1.4606826	0.24677918	-0.15176772	-0.94198134	0.028380992	-0.0019698052	-1.1001695	0.40782921	-0.20635096	-0.88566678	0.44833576	0.10114926	-1.0884621	0.36525055	-0.090259065	-0.87356931	0.46000991	-0.025354441	-1.0425986	0.78445262	-0.2191642	-1.0069376	0.84802336	0.16056985	-0.97366932	0.89512475	-0.16103886	-0.94967821	0.92929015	0.07682603	-1.1619758	0.93053136	-0.028042024	-0.99631636	1.380908	-0.18922296	-1.0284112	1.382412	0.13420634	-1.0940624	1.4127707	-0.037214293	-1.1192802	1.0620842	-0.28351863	-1.1481237	1.0568699	0.15298876	-0.97021349	0.86323016	-0.26091445	-1.1165825	0.84073732	0.25069522
